<?xml version="1.0" encoding="UTF-8"?>
<!DOCTYPE svg PUBLIC "-//W3C//DTD SVG 1.1//EN" "http://www.w3.org/Graphics/SVG/1.1/DTD/svg11.dtd">
<!-- Creator: CorelDRAW -->
<svg xmlns="http://www.w3.org/2000/svg" xml:space="preserve" width="0.124724in" height="0.123031in" style="shape-rendering:geometricPrecision; text-rendering:geometricPrecision; image-rendering:optimizeQuality; fill-rule:evenodd; clip-rule:evenodd"
viewBox="0 0 0.124724 0.123031"
 xmlns:xlink="http://www.w3.org/1999/xlink">
 <defs>
  <style type="text/css">
   <![CDATA[
    .fil0 {fill:#FFC600}
   ]]>
  </style>
 </defs>
 <g id="Layer_x0020_1">
  <metadata id="CorelCorpID_0Corel-Layer"/>
  <g id="_640270952">
   <path id="_324669520" class="fil0" d="M0.120169 0.0314291c-0.00084252,-0.00100787 -0.00209055,-0.00159449 -0.00340551,-0.00160236l-0.0240827 0 0 0.0127795c0,0.00586614 -0.00504331,0.0106457 -0.011252,0.0106457 -0.00618898,0 -0.0112283,-0.00477165 -0.0112283,-0.0106457l0 -0.0127795 -0.0224803 0 0 0.0127795c0,0.00586614 -0.00505118,0.0106457 -0.011252,0.0106457 -0.00619685,0 -0.0112283,-0.00477165 -0.0112283,-0.0106457l3.93701e-006 -0.0127795 -0.0240945 0c-0.000744094,0.000885827 -0.00115354,0.00201181 -0.00115354,0.00316929 0,0.000188976 1.1811e-005,0.000374016 3.14961e-005,0.000559055l0.00808268 0.074311c0.00015748,0.00839764 0.00668898,0.0151575 0.0146969,0.0151575l0.0791142 0c0.00801969,0 0.0145433,-0.00675984 0.0146969,-0.0151575l0.00808268 -0.074311c1.5748e-005,-0.000181102 2.75591e-005,-0.000366142 2.75591e-005,-0.000547244 0,-0.00116142 -0.000409449,-0.0022874 -0.00115354,-0.0031811l-0.00340551 0.00160236z"/>
   <path id="_324670408" class="fil0" d="M0.0364724 0.0468701c0.00248819,0 0.00451181,-0.00191732 0.00451181,-0.00425984l0 -0.0234409c0,-0.00658268 0.007,-0.0106457 0.0134882,-0.0106457l0.0112402 0c0.00682283,0 0.0112283,0.00417717 0.0112283,0.0106457l0 0.023437c0,0.00234252 0.00201969,0.00425984 0.00448819,0.00425984 0.00248819,0 0.00451181,-0.00191732 0.00451181,-0.00425984l0 -0.023437c-1.1811e-005,-0.0111142 -0.00851181,-0.0191654 -0.0202283,-0.0191654l-0.0112402 0c-0.0123976,0 -0.0224882,0.00860236 -0.0224882,0.0191654l0 0.023437c0,0.00234252 0.00201969,0.00425984 0.00448819,0.00425984l0 3.93701e-006z"/>
  </g>
 </g>
</svg>
