<?xml version="1.0" encoding="UTF-8"?>
<!DOCTYPE svg PUBLIC "-//W3C//DTD SVG 1.1//EN" "http://www.w3.org/Graphics/SVG/1.1/DTD/svg11.dtd">
<!-- Creator: CorelDRAW -->
<svg xmlns="http://www.w3.org/2000/svg" xml:space="preserve" width="0.333346in" height="0.333346in" style="shape-rendering:geometricPrecision; text-rendering:geometricPrecision; image-rendering:optimizeQuality; fill-rule:evenodd; clip-rule:evenodd"
viewBox="0 0 0.333346 0.333346"
 xmlns:xlink="http://www.w3.org/1999/xlink">
 <defs>
  <style type="text/css">
   <![CDATA[
    .fil0 {fill:#818181}
   ]]>
  </style>
 </defs>
 <g id="Layer_x0020_1">
  <metadata id="CorelCorpID_0Corel-Layer"/>
  <path class="fil0" d="M0.166673 7.87402e-006c-0.0920433,0 -0.166665,0.0746142 -0.166665,0.166665 0,0.0920512 0.074626,0.166665 0.166665,0.166665 0.0920512,0 0.166665,-0.074626 0.166665,-0.166665 0,-0.0920394 -0.0746142,-0.166665 -0.166665,-0.166665zm0.042311 0.0984882l-0.0314685 0 0 0.035874 0.0314685 0 0 0.0358858 -0.0314685 0 0 0.089689 -0.0314685 0 0 -0.089689 -0.0314567 0 0 -0.0358858 0.0314685 0 0 -0.035874c0,-0.019811 0.0140945,-0.0358858 0.0314685,-0.0358858l0.0314685 0 0 0.0358858 -1.1811e-005 0z"/>
 </g>
</svg>
