<?xml version="1.0" encoding="UTF-8"?>
<!DOCTYPE svg PUBLIC "-//W3C//DTD SVG 1.1//EN" "http://www.w3.org/Graphics/SVG/1.1/DTD/svg11.dtd">
<!-- Creator: CorelDRAW -->
<svg xmlns="http://www.w3.org/2000/svg" xml:space="preserve" width="0.333346in" height="0.333346in" style="shape-rendering:geometricPrecision; text-rendering:geometricPrecision; image-rendering:optimizeQuality; fill-rule:evenodd; clip-rule:evenodd"
viewBox="0 0 0.333346 0.333346"
 xmlns:xlink="http://www.w3.org/1999/xlink">
 <defs>
  <style type="text/css">
   <![CDATA[
    .fil0 {fill:#818181}
   ]]>
  </style>
 </defs>
 <g id="Layer_x0020_1">
  <metadata id="CorelCorpID_0Corel-Layer"/>
  <g id="_335421328">
   <path id="_335421952" class="fil0" d="M0.217882 0.166673c-3.93701e-006,0.0284016 -0.0230394,0.051437 -0.0514409,0.051437 -0.0284055,0 -0.0514409,-0.0230354 -0.0514409,-0.051437 0,-0.00410236 0.000531496,-0.00805118 0.00143701,-0.011874l-0.00934646 0 0 0.0712283 0.118709 0 0 -0.0712283 -0.00934646 0c0.000897638,0.00382283 0.0014252,0.00777165 0.0014252,0.011874l3.93701e-006 0z"/>
   <path id="_335422048" class="fil0" d="M0.166445 0.19437c0.0152717,0 0.0276969,-0.0124252 0.0276969,-0.0276969 0,-0.0152717 -0.0124252,-0.0276969 -0.0276969,-0.0276969 -0.0152717,0 -0.0276969,0.0124252 -0.0276969,0.0276969 0,0.0152717 0.0124173,0.0276969 0.0276969,0.0276969zm0.0276969 -0.0870512l0.0316575 0 0 0.0316575 -0.0316575 0 0 -0.0316575z"/>
   <path id="_335422000" class="fil0" d="M0.166673 7.87402e-006c-0.0920433,0 -0.166665,0.074622 -0.166665,0.166665 0,0.0920512 0.074626,0.166665 0.166665,0.166665 0.0920512,0 0.166665,-0.0746142 0.166665,-0.166665 0,-0.0920433 -0.0746142,-0.166665 -0.166665,-0.166665zm0.0828661 0.22602c-3.14961e-005,0.0130906 -0.0106457,0.0237047 -0.0237402,0.0237362l-0.11872 3.93701e-006c-0.0130906,-3.54331e-005 -0.0237047,-0.0106496 -0.0237362,-0.0237441l-3.93701e-006 -0.118705c4.72441e-005,-0.0130906 0.0106535,-0.0236969 0.023748,-0.0237362l0.118701 -3.93701e-006c0.0130945,4.33071e-005 0.0237008,0.0106496 0.0237402,0.0237441l0 0.118709 1.1811e-005 -3.93701e-006z"/>
  </g>
 </g>
</svg>
