<?xml version="1.0" encoding="UTF-8"?>
<!DOCTYPE svg PUBLIC "-//W3C//DTD SVG 1.1//EN" "http://www.w3.org/Graphics/SVG/1.1/DTD/svg11.dtd">
<!-- Creator: CorelDRAW -->
<svg xmlns="http://www.w3.org/2000/svg" xml:space="preserve" width="0.333346in" height="0.333346in" style="shape-rendering:geometricPrecision; text-rendering:geometricPrecision; image-rendering:optimizeQuality; fill-rule:evenodd; clip-rule:evenodd"
viewBox="0 0 0.333346 0.333346"
 xmlns:xlink="http://www.w3.org/1999/xlink">
 <defs>
  <style type="text/css">
   <![CDATA[
    .fil0 {fill:#818181}
   ]]>
  </style>
 </defs>
 <g id="Layer_x0020_1">
  <metadata id="CorelCorpID_0Corel-Layer"/>
  <path class="fil0" d="M0.166673 7.87402e-006c-0.0920433,0 -0.166665,0.074622 -0.166665,0.166665 0,0.0920512 0.074626,0.166665 0.166665,0.166665 0.0920512,0 0.166665,-0.0746142 0.166665,-0.166665 0,-0.0920433 -0.0746142,-0.166665 -0.166665,-0.166665zm0.082752 0.133425c-0.00261417,0.067874 -0.0360748,0.112835 -0.1145,0.11148l-0.00506299 0c-0.00465748,0 -0.0473228,-0.00461417 -0.0556654,-0.0189882 0.0258228,0.00198031 0.0442402,-0.00422835 0.0533346,-0.0118346 -0.0109173,-0.00301181 -0.0304488,-0.00480315 -0.0338661,-0.0296654 0.004,0.00108268 0.00643701,0.00230315 0.0135315,0.00117717 -0.0136142,-0.00858268 -0.0287283,-0.0158228 -0.0279055,-0.0379488 0.00324016,0.00330315 0.012126,0.00539764 0.0152087,0.00475984 -0.008,-0.0024252 -0.0223858,-0.0337913 -0.0101457,-0.0498031 0.0206654,0.0186457 0.0424488,0.0362717 0.0812913,0.0379488 0.00236614,-0.023063 0.0129173,-0.0385315 0.033,-0.0450512 0.0191654,-0.00498819 0.0339055,0.00270866 0.0406339,0.0118543 0.00767717,-0.00233465 0.0151339,-0.00485433 0.0228425,-0.00713386 -4.33071e-005,0.00867717 -0.0059252,0.0152402 -0.00974016,0.0178031 0.00777953,0.00172047 0.0148228,-0.00494882 0.0148228,-0.00494882 -0.00191732,0.0100315 -0.0113976,0.0179685 -0.0177795,0.0203543l0 -3.93701e-006z"/>
 </g>
</svg>
